# This file uses centimeters as units for non-parametric coordinates.

mtllib Paredes_all_UV.mtl
g default
v 0.000000 0.000000 0.099998
v 1.000000 0.000000 0.099998
v 0.000000 3.500000 0.099998
v 1.000000 3.500000 0.099998
v 1.000000 3.500000 0.000000
v 0.000000 3.500000 0.000000
v 0.000000 2.500000 0.099998
v 1.000000 2.500000 0.099998
v 0.899902 3.500000 0.000000
v 0.899902 0.000000 0.099998
v 0.899902 2.500000 0.099998
v 0.899902 3.500000 0.099998
v 0.099976 3.500000 0.000000
v 0.099976 0.000000 0.099998
v 0.099976 2.500000 0.099998
v 0.099976 3.500000 0.099998
v 0.000000 1.500000 0.099998
v 0.099976 1.500000 0.099998
v 0.899902 1.500000 0.099998
v 1.000000 1.500000 0.099998
vt 0.541455 0.696238
vt 0.541455 0.710733
vt 0.526962 0.710733
vt 0.526962 0.696238
vt 0.657411 0.696238
vt 0.657411 0.710733
vt 0.671921 0.696238
vt 0.671921 0.710733
vt 0.166084 0.373254
vt 0.180576 0.373254
vt 0.180576 0.518211
vt 0.166084 0.518211
vt 0.166084 0.228297
vt 0.180576 0.228297
vt 0.296531 0.373254
vt 0.296531 0.518211
vt 0.166084 0.010861
vt 0.180576 0.010861
vt 0.311041 0.373254
vt 0.311041 0.518211
vt 0.296531 0.228297
vt 0.296531 0.010861
vt 0.311041 0.228297
vt 0.311041 0.010861
vn 0.000000 1.000000 0.000000
vn 0.000000 1.000000 0.000000
vn 0.000000 1.000000 0.000000
vn 0.000000 1.000000 0.000000
vn 0.000000 0.000000 1.000000
vn 0.000000 0.000000 1.000000
vn 0.000000 0.000000 1.000000
vn 0.000000 0.000000 1.000000
vn 0.000000 0.000000 1.000000
vn 0.000000 0.000000 1.000000
vn 0.000000 0.000000 1.000000
vn 0.000000 0.000000 1.000000
vn 0.000000 1.000000 0.000000
vn 0.000000 1.000000 0.000000
vn 0.000000 1.000000 0.000000
vn 0.000000 1.000000 0.000000
vn 0.000000 0.000000 1.000000
vn 0.000000 0.000000 1.000000
vn 0.000000 0.000000 1.000000
vn 0.000000 0.000000 1.000000
vn 0.000000 1.000000 0.000000
vn 0.000000 1.000000 0.000000
vn 0.000000 1.000000 0.000000
vn 0.000000 1.000000 0.000000
vn 0.000000 0.000000 1.000000
vn 0.000000 0.000000 1.000000
vn 0.000000 0.000000 1.000000
vn 0.000000 0.000000 1.000000
vn 0.000000 0.000000 1.000000
vn 0.000000 0.000000 1.000000
vn 0.000000 0.000000 1.000000
vn 0.000000 0.000000 1.000000
vn 0.000000 0.000000 1.000000
vn 0.000000 0.000000 1.000000
vn 0.000000 0.000000 1.000000
vn 0.000000 0.000000 1.000000
vn 0.000000 0.000000 1.000000
vn 0.000000 0.000000 1.000000
vn 0.000000 0.000000 1.000000
vn 0.000000 0.000000 1.000000
vn 0.000000 0.000000 1.000000
vn 0.000000 0.000000 1.000000
vn 0.000000 0.000000 1.000000
vn 0.000000 0.000000 1.000000
s off
g tudo:Wall_WindowSmall
usemtl Parede1
f 16/1/1 13/2/2 6/3/3 3/4/4
f 7/9/5 15/10/6 16/11/7 3/12/8
f 12/16/9 11/15/10 8/19/11 4/20/12
f 4/7/13 5/8/14 9/6/15 12/5/16
f 16/11/17 15/10/18 11/15/19 12/16/20
f 12/5/21 9/6/22 13/2/23 16/1/24
f 11/15/25 19/21/26 20/23/27 8/19/28
f 17/13/29 18/14/30 15/10/31 7/9/32
f 1/17/33 14/18/34 18/14/35 17/13/36
f 19/21/37 18/14/38 14/18/39 10/22/40
f 20/23/41 19/21/42 10/22/43 2/24/44
g default
v 1.000000 0.000000 0.099998
v 0.000000 0.000000 0.099998
v 1.000000 3.500000 0.099998
v 0.000000 3.500000 0.099998
v 1.000000 2.500000 0.099998
v 0.000000 2.500000 0.099998
v 0.100098 0.000000 0.099998
v 0.100098 2.500000 0.099998
v 0.100098 3.500000 0.099998
v 1.000000 1.500000 0.099998
v 0.100098 1.500000 0.099998
v 0.000000 1.500000 0.099998
v 0.100098 3.500000 0.000000
v 0.000000 3.500000 0.000000
v 1.000000 3.500000 0.000000
vt 0.541473 0.646702
vt 0.541473 0.661198
vt 0.526963 0.661198
vt 0.526963 0.646702
vt 0.671920 0.646702
vt 0.671920 0.661198
vt 0.464866 0.518212
vt 0.334419 0.518212
vt 0.334419 0.373254
vt 0.464866 0.373254
vt 0.319909 0.518212
vt 0.319909 0.373254
vt 0.319909 0.228297
vt 0.334419 0.228297
vt 0.319909 0.010861
vt 0.334419 0.010861
vt 0.464866 0.010861
vt 0.464866 0.228297
vn 0.000000 0.000000 1.000000
vn 0.000000 0.000000 1.000000
vn 0.000000 0.000000 1.000000
vn 0.000000 0.000000 1.000000
vn 0.000000 0.000000 1.000000
vn 0.000000 0.000000 1.000000
vn 0.000000 0.000000 1.000000
vn 0.000000 0.000000 1.000000
vn 0.000000 0.000000 1.000000
vn 0.000000 0.000000 1.000000
vn 0.000000 0.000000 1.000000
vn 0.000000 0.000000 1.000000
vn 0.000000 0.000000 1.000000
vn 0.000000 0.000000 1.000000
vn 0.000000 0.000000 1.000000
vn 0.000000 0.000000 1.000000
vn 0.000000 0.000000 1.000000
vn 0.000000 0.000000 1.000000
vn 0.000000 0.000000 1.000000
vn 0.000000 0.000000 1.000000
vn 0.000000 1.000000 0.000000
vn 0.000000 1.000000 0.000000
vn 0.000000 1.000000 0.000000
vn 0.000000 1.000000 0.000000
vn 0.000000 1.000000 0.000000
vn 0.000000 1.000000 0.000000
vn 0.000000 1.000000 0.000000
vn 0.000000 1.000000 0.000000
s off
g tudo:Wall_WindowMLeft1
usemtl Parede1
f 23/31/45 29/32/46 28/33/47 25/34/48
f 29/32/49 24/35/50 26/36/51 28/33/52
f 28/33/53 26/36/54 32/37/55 31/38/56
f 31/38/57 27/40/58 21/41/59 30/42/60
f 32/37/61 22/39/62 27/40/63 31/38/64
f 29/25/65 33/26/66 34/27/67 24/28/68
f 23/29/69 35/30/70 33/26/71 29/25/72
g default
v 0.000000 0.000000 0.100338
v 1.000000 0.000000 0.100338
v 0.000000 3.500000 0.100338
v 1.000000 3.500000 0.100338
v 1.000000 3.500000 0.000337
v 0.000000 3.500000 0.000337
v 0.000000 2.500000 0.100338
v 1.000000 2.500000 0.100338
v 0.899994 3.500000 0.000337
v 0.899994 0.000000 0.100338
v 0.899994 2.500000 0.100338
v 0.899994 3.500000 0.100338
v 0.099998 3.500000 0.000337
v 0.099998 0.000000 0.100338
v 0.099998 2.500000 0.100338
v 0.099998 3.500000 0.100338
v 0.099998 0.000000 0.000000
v 0.899994 0.000000 0.000000
v 0.899994 0.000000 0.100338
v 0.099998 0.000000 0.100338
vt 0.547476 0.752262
vt 0.547476 0.766758
vt 0.532981 0.766758
vt 0.532981 0.752262
vt 0.663441 0.752262
vt 0.663441 0.766758
vt 0.677938 0.752262
vt 0.677938 0.766757
vt 0.548385 0.781691
vt 0.664350 0.781691
vt 0.664350 0.796236
vt 0.548385 0.796236
vt 0.364890 0.839195
vt 0.364890 0.824701
vt 0.509833 0.824701
vt 0.509833 0.839195
vt 0.002534 0.839231
vt 0.002534 0.824701
vt 0.364890 0.708748
vt 0.509833 0.708748
vt 0.364890 0.694253
vt 0.509833 0.694253
vt 0.002534 0.708748
vt 0.002534 0.694253
vn 0.000000 1.000000 0.000000
vn 0.000000 1.000000 0.000000
vn 0.000000 1.000000 0.000000
vn 0.000000 1.000000 0.000000
vn 0.000000 0.000000 1.000000
vn 0.000000 0.000000 1.000000
vn 0.000000 0.000000 1.000000
vn 0.000000 0.000000 1.000000
vn 0.000000 0.000000 1.000000
vn 0.000000 0.000000 1.000000
vn 0.000000 0.000000 1.000000
vn 0.000000 0.000000 1.000000
vn 0.000000 1.000000 0.000000
vn 0.000000 1.000000 0.000000
vn 0.000000 1.000000 0.000000
vn 0.000000 1.000000 0.000000
vn 0.000000 0.000000 1.000000
vn 0.000000 0.000000 1.000000
vn 0.000000 0.000000 1.000000
vn 0.000000 0.000000 1.000000
vn 0.000000 1.000000 0.000000
vn 0.000000 1.000000 0.000000
vn 0.000000 1.000000 0.000000
vn 0.000000 1.000000 0.000000
vn 0.000000 0.000000 1.000000
vn 0.000000 0.000000 1.000000
vn 0.000000 0.000000 1.000000
vn 0.000000 0.000000 1.000000
vn 0.000000 0.000000 1.000000
vn 0.000000 0.000000 1.000000
vn 0.000000 0.000000 1.000000
vn 0.000000 0.000000 1.000000
vn 0.000000 1.000000 0.000000
vn 0.000000 1.000000 0.000000
vn 0.000000 1.000000 0.000000
vn 0.000000 1.000000 0.000000
s off
g tudo:Wall_Door
usemtl Parede1
f 51/43/73 48/44/74 41/45/75 38/46/76
f 42/55/77 50/56/78 51/57/79 38/58/80
f 47/62/81 46/61/82 43/63/83 39/64/84
f 39/49/85 40/50/86 44/48/87 47/47/88
f 51/57/89 50/56/90 46/61/91 47/62/92
f 47/47/93 44/48/94 48/44/95 51/43/96
f 46/61/97 54/65/98 37/66/99 43/63/100
f 36/59/101 55/60/102 50/56/103 42/55/104
f 49/51/105 45/52/106 53/53/107 52/54/108
g default
v 0.000000 0.000092 0.099998
v 1.000000 0.000092 0.099998
v 0.000000 3.500122 0.099998
v 1.000000 3.500122 0.099998
v 0.000000 3.500122 0.000000
v 1.000000 3.500122 0.000000
vt 0.526963 0.622618
vt 0.671920 0.622618
vt 0.671920 0.637114
vt 0.526963 0.637114
vt 0.008432 0.518216
vt 0.008432 0.010861
vt 0.153390 0.010861
vt 0.153390 0.518216
vn 0.000000 0.000000 1.000000
vn 0.000000 0.000000 1.000000
vn 0.000000 0.000000 1.000000
vn 0.000000 0.000000 1.000000
vn 0.000000 1.000000 0.000000
vn 0.000000 1.000000 0.000000
vn 0.000000 1.000000 0.000000
vn 0.000000 1.000000 0.000000
s off
g tudo:Wall1
usemtl Parede1
f 58/71/109 56/72/110 57/73/111 59/74/112
f 58/67/113 59/68/114 61/69/115 60/70/116
g default
v 0.000000 0.000000 0.099998
v 0.250000 0.000000 0.099998
v 0.000000 3.500000 0.099998
v 0.250000 3.500000 0.099998
v 0.000000 3.500000 -0.099998
v 0.250000 3.500000 -0.099998
v 0.000000 0.000000 -0.099998
v 0.250000 0.000000 -0.099998
vt 0.510117 0.923124
vt 0.510117 0.960448
vt 0.007224 0.960448
vt 0.007224 0.925089
vt 0.007224 0.893658
vt 0.007224 0.858298
vt 0.510117 0.858298
vt 0.510117 0.895622
vt 0.510117 0.989915
vt 0.007224 0.989915
vn 0.000000 0.000000 1.000000
vn 0.000000 0.000000 1.000000
vn 0.000000 0.000000 1.000000
vn 0.000000 0.000000 1.000000
vn 0.000000 0.000000 -1.000000
vn 0.000000 0.000000 -1.000000
vn 0.000000 0.000000 -1.000000
vn 0.000000 0.000000 -1.000000
vn 1.000000 0.000000 0.000000
vn 1.000000 0.000000 0.000000
vn 1.000000 0.000000 0.000000
vn 1.000000 0.000000 0.000000
vn -1.000000 0.000000 0.000000
vn -1.000000 0.000000 0.000000
vn -1.000000 0.000000 0.000000
vn -1.000000 0.000000 0.000000
s off
g tudo:TapaBuraco
usemtl Parede1
f 62/75/117 63/76/118 65/77/119 64/78/120
f 66/79/121 67/80/122 69/81/123 68/82/124
f 63/76/125 69/83/126 67/84/127 65/77/128
f 68/82/129 62/75/130 64/78/131 66/79/132
g default
v 0.000000 0.000000 0.099998
v 1.000000 0.000000 0.099998
v 0.000000 3.500000 0.099998
v 1.000000 3.500000 0.099998
v 0.000000 2.500000 0.099998
v 1.000000 2.500000 0.099998
v 0.899902 0.000000 0.099998
v 0.899902 2.500000 0.099998
v 0.899902 3.500000 0.099998
v 0.000000 1.000000 0.099998
v 0.899902 1.000000 0.099998
v 1.000000 1.000000 0.099998
v 0.899902 3.500000 0.000000
v 1.000000 3.500000 0.000000
v 0.000000 3.500000 0.000000
vt 0.657410 0.672154
vt 0.671920 0.672154
vt 0.671920 0.686650
vt 0.657410 0.686649
vt 0.526963 0.672154
vt 0.526963 0.686649
vt 0.838312 0.518212
vt 0.838312 0.373254
vt 0.968759 0.373254
vt 0.968759 0.518212
vt 0.983269 0.373254
vt 0.983269 0.518212
vt 0.968759 0.155818
vt 0.983269 0.155818
vt 0.968759 0.010861
vt 0.983269 0.010861
vt 0.838312 0.155818
vt 0.838312 0.010861
vn 0.000000 0.000000 1.000000
vn 0.000000 0.000000 1.000000
vn 0.000000 0.000000 1.000000
vn 0.000000 0.000000 1.000000
vn 0.000000 0.000000 1.000000
vn 0.000000 0.000000 1.000000
vn 0.000000 0.000000 1.000000
vn 0.000000 0.000000 1.000000
vn 0.000000 0.000000 1.000000
vn 0.000000 0.000000 1.000000
vn 0.000000 0.000000 1.000000
vn 0.000000 0.000000 1.000000
vn 0.000000 0.000000 1.000000
vn 0.000000 0.000000 1.000000
vn 0.000000 0.000000 1.000000
vn 0.000000 0.000000 1.000000
vn 0.000000 0.000000 1.000000
vn 0.000000 0.000000 1.000000
vn 0.000000 0.000000 1.000000
vn 0.000000 0.000000 1.000000
vn 0.000000 1.000000 0.000000
vn 0.000000 1.000000 0.000000
vn 0.000000 1.000000 0.000000
vn 0.000000 1.000000 0.000000
vn 0.000000 1.000000 0.000000
vn 0.000000 1.000000 0.000000
vn 0.000000 1.000000 0.000000
vn 0.000000 1.000000 0.000000
s off
g tudo:Wall_WindowBRight1
usemtl Parede1
f 72/91/133 74/92/134 77/93/135 78/94/136
f 78/94/137 77/93/138 75/95/139 73/96/140
f 77/93/141 80/97/142 81/98/143 75/95/144
f 80/97/145 79/101/146 70/102/147 76/99/148
f 81/98/149 80/97/150 76/99/151 71/100/152
f 78/85/153 73/86/154 83/87/155 82/88/156
f 72/89/157 78/85/158 82/88/159 84/90/160
g default
v 0.000000 0.000000 0.099998
v 1.000000 0.000000 0.099998
v 0.000000 3.500000 0.099998
v 1.000000 3.500000 0.099998
v 0.000000 2.500000 0.099998
v 1.000000 2.500000 0.099998
v 0.899902 0.000000 0.099998
v 0.899902 2.500000 0.099998
v 0.899902 3.500000 0.099998
v 0.000000 1.500000 0.099998
v 0.899902 1.500000 0.099998
v 1.000000 1.500000 0.099998
v 0.899902 3.500000 0.000000
v 1.000000 3.500000 0.000000
v 0.000000 3.500000 0.000000
vt 0.657411 0.718757
vt 0.671921 0.718757
vt 0.671921 0.733253
vt 0.657411 0.733253
vt 0.526962 0.718757
vt 0.526962 0.733253
vt 0.473616 0.518212
vt 0.473616 0.373254
vt 0.604063 0.373254
vt 0.604063 0.518212
vt 0.618573 0.373254
vt 0.618573 0.518212
vt 0.604063 0.228297
vt 0.618573 0.228297
vt 0.604063 0.010861
vt 0.618573 0.010861
vt 0.473616 0.228297
vt 0.473616 0.010861
vn 0.000000 0.000000 1.000000
vn 0.000000 0.000000 1.000000
vn 0.000000 0.000000 1.000000
vn 0.000000 0.000000 1.000000
vn 0.000000 0.000000 1.000000
vn 0.000000 0.000000 1.000000
vn 0.000000 0.000000 1.000000
vn 0.000000 0.000000 1.000000
vn 0.000000 0.000000 1.000000
vn 0.000000 0.000000 1.000000
vn 0.000000 0.000000 1.000000
vn 0.000000 0.000000 1.000000
vn 0.000000 0.000000 1.000000
vn 0.000000 0.000000 1.000000
vn 0.000000 0.000000 1.000000
vn 0.000000 0.000000 1.000000
vn 0.000000 0.000000 1.000000
vn 0.000000 0.000000 1.000000
vn 0.000000 0.000000 1.000000
vn 0.000000 0.000000 1.000000
vn 0.000000 1.000000 0.000000
vn 0.000000 1.000000 0.000000
vn 0.000000 1.000000 0.000000
vn 0.000000 1.000000 0.000000
vn 0.000000 1.000000 0.000000
vn 0.000000 1.000000 0.000000
vn 0.000000 1.000000 0.000000
vn 0.000000 1.000000 0.000000
s off
g tudo:Wall_WindowMRight1
usemtl Parede1
f 87/109/161 89/110/162 92/111/163 93/112/164
f 93/112/165 92/111/166 90/113/167 88/114/168
f 92/111/169 95/115/170 96/116/171 90/113/172
f 95/115/173 94/119/174 85/120/175 91/117/176
f 96/116/177 95/115/178 91/117/179 86/118/180
f 93/103/181 88/104/182 98/105/183 97/106/184
f 87/107/185 93/103/186 97/106/187 99/108/188
g default
v 1.000000 3.500244 0.099998
v 0.000000 3.500244 0.099998
v 1.000000 2.500244 0.099998
v 0.000000 2.500244 0.099998
v 1.000000 3.500244 0.000000
v 0.000000 3.500244 0.000000
v 1.000000 0.000237 0.099998
v 0.000000 0.000237 0.099998
v 1.000000 1.500244 0.099998
v 0.000000 1.500244 0.099998
vt 0.672525 0.569562
vt 0.672524 0.583875
vt 0.526959 0.584119
vt 0.526960 0.569562
vt 0.989752 0.995885
vt 0.844777 0.995885
vt 0.844777 0.850945
vt 0.989752 0.850945
vt 0.844604 0.743538
vt 0.844604 0.526055
vt 0.989469 0.526055
vt 0.989593 0.743538
vn 0.000000 0.000000 1.000000
vn 0.000000 0.000000 1.000000
vn 0.000000 0.000000 1.000000
vn 0.000000 0.000000 1.000000
vn 0.000000 1.000000 0.000000
vn 0.000000 1.000000 0.000000
vn 0.000000 1.000000 0.000000
vn 0.000000 1.000000 0.000000
vn 0.000000 0.000000 1.000000
vn 0.000000 0.000000 1.000000
vn 0.000000 0.000000 1.000000
vn 0.000000 0.000000 1.000000
s off
g tudo:Wall_WindowMMiddle
usemtl Parede1
f 101/125/189 103/126/190 102/127/191 100/128/192
f 100/121/193 104/122/194 105/123/195 101/124/196
f 109/129/197 107/130/198 106/131/199 108/132/200
g default
v 1.000000 3.500244 0.099998
v 0.000000 3.500244 0.099998
v 1.000000 2.500244 0.099998
v 0.000000 2.500244 0.099998
v 1.000000 3.500244 0.000000
v 0.000000 3.500244 0.000000
v 1.000000 0.000237 0.099998
v 0.000000 0.000237 0.099998
v 1.000000 1.000244 0.099998
v 0.000000 1.000244 0.099998
vt 0.671919 0.543244
vt 0.671919 0.557739
vt 0.526963 0.557982
vt 0.526963 0.543486
vt 0.832510 0.995445
vt 0.687562 0.995445
vt 0.687526 0.850497
vt 0.832510 0.850497
vt 0.689618 0.676896
vt 0.689618 0.531937
vt 0.834575 0.531937
vt 0.834575 0.676896
vn 0.000000 0.000000 1.000000
vn 0.000000 0.000000 1.000000
vn 0.000000 0.000000 1.000000
vn 0.000000 0.000000 1.000000
vn 0.000000 1.000000 0.000000
vn 0.000000 1.000000 0.000000
vn 0.000000 1.000000 0.000000
vn 0.000000 1.000000 0.000000
vn 0.000000 0.000000 1.000000
vn 0.000000 0.000000 1.000000
vn 0.000000 0.000000 1.000000
vn 0.000000 0.000000 1.000000
s off
g tudo:Wall_WindowBMiddle
usemtl Parede1
f 111/137/201 113/138/202 112/139/203 110/140/204
f 110/133/205 114/134/206 115/135/207 111/136/208
f 119/141/209 117/142/210 116/143/211 118/144/212
g default
v 1.000000 0.000000 0.099998
v -0.000244 0.000000 0.099998
v 1.000000 3.500000 0.099998
v -0.000244 3.500000 0.099998
v 1.000000 2.500000 0.099998
v -0.000244 2.500000 0.099998
v 0.100098 0.000000 0.099998
v 0.100098 2.500000 0.099998
v 0.100098 3.500000 0.099998
v 1.000000 1.000000 0.099998
v 0.100098 1.000000 0.099998
v -0.000244 1.000000 0.099998
v 0.100098 3.500000 0.000000
v -0.000244 3.500000 0.000000
v 1.000000 3.500000 0.000000
vt 0.541508 0.598633
vt 0.541508 0.613128
vt 0.526962 0.613128
vt 0.526963 0.598633
vt 0.671955 0.598633
vt 0.671955 0.613128
vt 0.827913 0.518212
vt 0.697465 0.518212
vt 0.697465 0.373254
vt 0.827913 0.373254
vt 0.682920 0.518212
vt 0.682920 0.373254
vt 0.682920 0.155818
vt 0.697465 0.155818
vt 0.682920 0.010861
vt 0.697465 0.010861
vt 0.827913 0.010861
vt 0.827913 0.155818
vn 0.000000 0.000000 1.000000
vn 0.000000 0.000000 1.000000
vn 0.000000 0.000000 1.000000
vn 0.000000 0.000000 1.000000
vn 0.000000 0.000000 1.000000
vn 0.000000 0.000000 1.000000
vn 0.000000 0.000000 1.000000
vn 0.000000 0.000000 1.000000
vn 0.000000 0.000000 1.000000
vn 0.000000 0.000000 1.000000
vn 0.000000 0.000000 1.000000
vn 0.000000 0.000000 1.000000
vn 0.000000 0.000000 1.000000
vn 0.000000 0.000000 1.000000
vn 0.000000 0.000000 1.000000
vn 0.000000 0.000000 1.000000
vn 0.000000 0.000000 1.000000
vn 0.000000 0.000000 1.000000
vn 0.000000 0.000000 1.000000
vn 0.000000 0.000000 1.000000
vn 0.000000 1.000000 0.000000
vn 0.000000 1.000000 0.000000
vn 0.000000 1.000000 0.000000
vn 0.000000 1.000000 0.000000
vn 0.000000 1.000000 0.000000
vn 0.000000 1.000000 0.000000
vn 0.000000 1.000000 0.000000
vn 0.000000 1.000000 0.000000
s off
g tudo:Wall_WindowBLeft1
usemtl Parede1
f 122/151/213 128/152/214 127/153/215 124/154/216
f 128/152/217 123/155/218 125/156/219 127/153/220
f 127/153/221 125/156/222 131/157/223 130/158/224
f 130/158/225 126/160/226 120/161/227 129/162/228
f 131/157/229 121/159/230 126/160/231 130/158/232
f 128/145/233 132/146/234 133/147/235 123/148/236
f 122/149/237 134/150/238 132/146/239 128/145/240
